<?xml version="1.0" standalone="no"?>
<!DOCTYPE svg PUBLIC "-//W3C//DTD SVG 20010904//EN"
 "http://www.w3.org/TR/2001/REC-SVG-20010904/DTD/svg10.dtd">
<svg version="1.0" xmlns="http://www.w3.org/2000/svg"
 width="500.000000pt" height="500.000000pt" viewBox="0 0 500.000000 500.000000"
 preserveAspectRatio="xMidYMid meet">
<metadata>
Created by potrace 1.14, written by Peter Selinger 2001-2017
</metadata>
<g transform="translate(0.000000,500.000000) scale(0.100000,-0.100000)"
fill="#000000" stroke="none">
<path d="M3580 4205 c-8 -2 -49 -9 -90 -15 -408 -66 -674 -327 -720 -708 -30
-248 59 -485 240 -641 157 -134 336 -215 664 -302 l148 -39 410 0 410 0 -38
43 c-159 176 -371 283 -795 397 -191 52 -272 81 -383 138 -98 50 -181 124
-211 187 -24 51 -31 167 -15 236 28 118 81 181 206 246 109 57 176 73 307 73
233 0 410 -65 558 -207 l56 -53 164 101 c90 56 165 103 167 104 10 9 -134 168
-193 212 -123 94 -321 177 -492 208 -81 15 -358 29 -393 20z"/>
<path d="M1580 4156 c-578 -85 -1057 -528 -1205 -1115 -36 -144 -56 -399 -39
-503 l7 -38 212 0 212 0 -5 128 c-13 370 158 740 440 952 144 109 299 171 474
191 261 29 523 -66 747 -271 l55 -50 127 162 128 162 -44 38 c-171 150 -458
292 -671 333 -117 22 -322 27 -438 11z"/>
<path d="M2221 2520 c-24 -5 -92 -32 -150 -60 -72 -33 -120 -50 -146 -50 -125
-1 -266 -39 -312 -85 -29 -29 -33 -39 -33 -88 0 -65 11 -78 78 -84 54 -5 40
10 -20 21 l-38 7 0 59 c0 46 5 65 19 79 30 30 146 62 246 67 80 5 101 10 185
49 114 53 194 75 286 77 80 2 242 -8 264 -16 8 -3 78 -24 155 -47 77 -23 152
-47 167 -55 30 -16 38 -43 12 -40 -27 2 -27 -20 0 -32 38 -17 44 -57 15 -89
-27 -29 -77 -53 -112 -53 -20 0 -25 6 -31 38 -8 53 -52 93 -109 99 -40 5 -48
2 -82 -29 -27 -24 -39 -46 -44 -74 l-6 -39 -300 -8 c-165 -4 -306 -5 -312 -2
-7 2 -13 20 -13 38 0 58 -64 117 -125 117 -59 0 -115 -61 -115 -125 0 -20 4
-26 15 -21 8 3 15 1 15 -5 0 -5 11 -21 25 -34 45 -46 133 -27 157 34 l10 26 9
-22 8 -23 310 0 c309 0 310 0 325 22 9 12 16 17 16 11 0 -6 12 -25 26 -42 37
-45 90 -43 142 4 27 24 42 31 49 24 13 -13 116 6 151 28 22 13 23 20 18 66 -4
29 -8 69 -10 91 -2 21 -8 42 -13 46 -4 4 -89 33 -189 64 -180 55 -180 55 -340
60 -87 3 -179 1 -203 -4z m-391 -225 c0 -8 -4 -15 -10 -15 -5 0 -10 7 -10 15
0 8 5 15 10 15 6 0 10 -7 10 -15z m870 1 c0 -8 -5 -16 -12 -18 -8 -3 -8 -9 -1
-22 9 -16 11 -14 16 14 7 33 33 39 47 10 34 -68 34 -69 17 -105 -16 -33 -49
-55 -83 -55 -21 0 -29 29 -14 54 13 21 13 21 -8 2 -12 -10 -19 -23 -16 -27 12
-20 -16 -7 -30 13 -19 27 -20 50 -4 81 6 12 14 29 18 37 4 8 17 15 29 14 11 0
21 3 21 8 0 4 5 8 10 8 6 0 10 -6 10 -14z m-895 -16 c8 -26 22 -26 30 1 7 23
34 22 45 -1 29 -59 32 -69 23 -96 -12 -35 -67 -68 -100 -59 -28 7 -59 35 -68
64 -8 26 29 111 49 111 8 0 18 -9 21 -20z m1155 -70 c0 -5 -5 -10 -11 -10 -5
0 -7 5 -4 10 3 6 8 10 11 10 2 0 4 -4 4 -10z"/>
<path d="M2637 2264 c-9 -10 12 -34 30 -34 19 0 12 34 -8 38 -8 1 -18 0 -22
-4z"/>
<path d="M2710 2250 c0 -11 4 -20 9 -20 13 0 32 26 24 33 -13 14 -33 6 -33
-13z"/>
<path d="M2620 2229 c0 -5 5 -9 12 -9 7 0 4 -6 -5 -12 -12 -9 -14 -17 -7 -28
8 -13 12 -12 27 4 13 13 14 17 3 12 -11 -6 -11 -4 1 6 15 12 15 15 -7 25 -13
6 -24 7 -24 2z"/>
<path d="M2725 2223 l-30 -14 30 6 c31 7 41 12 34 19 -2 2 -17 -3 -34 -11z"/>
<path d="M2727 2204 c-3 -3 -3 -13 1 -22 5 -15 4 -15 -13 -2 -17 14 -17 14 -4
-7 8 -13 17 -23 22 -23 4 0 6 4 3 9 -3 5 1 11 9 15 19 7 20 36 2 36 -8 0 -16
-3 -20 -6z"/>
<path d="M2677 2164 c-13 -13 -7 -24 14 -24 11 0 19 5 17 12 -5 14 -22 21 -31
12z"/>
<path d="M1767 2263 c-8 -7 11 -33 24 -33 5 0 9 9 9 20 0 19 -20 27 -33 13z"/>
<path d="M1833 2255 c-7 -8 -13 -16 -13 -19 0 -9 50 9 50 19 1 16 -24 16 -37
0z"/>
<path d="M1750 2230 c0 -5 5 -10 11 -10 5 0 7 5 4 10 -3 6 -8 10 -11 10 -2 0
-4 -4 -4 -10z"/>
<path d="M1875 2230 c-3 -5 -1 -10 4 -10 6 0 11 5 11 10 0 6 -2 10 -4 10 -3 0
-8 -4 -11 -10z"/>
<path d="M1788 2213 c7 -3 16 -2 19 1 4 3 -2 6 -13 5 -11 0 -14 -3 -6 -6z"/>
<path d="M1846 2192 c1 -15 3 -30 3 -34 1 -5 6 -8 12 -8 8 0 7 6 -2 16 -12 15
-11 16 9 10 13 -5 22 -3 22 3 0 6 0 14 0 19 0 4 -6 7 -13 7 -6 0 -17 3 -22 7
-7 4 -10 -4 -9 -20z"/>
<path d="M1750 2195 c0 -9 7 -18 15 -21 8 -4 13 -10 10 -14 -3 -5 -1 -11 4
-14 5 -3 11 1 15 9 3 8 2 15 -3 15 -5 0 -11 9 -14 20 -6 23 -27 27 -27 5z"/>
<path d="M1804 2164 c-1 -17 3 -24 17 -24 24 0 24 6 2 30 -18 18 -18 18 -19
-6z"/>
<path d="M2195 2471 c-61 -18 -124 -47 -160 -75 -19 -15 -19 -15 8 -16 15 0
27 -4 27 -10 0 -5 7 -10 15 -10 8 0 15 -4 15 -10 0 -5 5 -10 11 -10 8 0 7 5
-1 15 -7 9 -10 19 -6 23 4 4 136 12 294 17 198 8 287 14 289 22 3 7 11 9 19 6
8 -3 14 -1 14 4 0 5 -32 9 -72 9 -45 -1 -72 3 -75 11 -3 8 6 9 34 2 49 -11 75
-10 44 2 -95 38 -356 49 -456 20z m135 -10 c0 -5 -3 -17 -7 -27 -6 -16 -7 -16
-14 2 -7 17 -8 17 -8 -3 -1 -22 -5 -23 -71 -23 -62 0 -70 2 -70 19 0 14 11 22
38 29 48 13 132 15 132 3z m40 1 c0 -11 -22 -32 -32 -32 -5 0 -4 9 2 20 11 20
30 28 30 12z m140 -18 c6 -14 10 -27 10 -30 0 -2 -29 -4 -65 -4 -51 0 -63 3
-59 14 3 8 1 17 -5 21 -26 15 -7 25 49 25 56 0 61 -2 70 -26z m38 4 c19 -19
14 -30 -8 -18 -11 6 -20 15 -20 20 0 14 14 12 28 -2z m-409 -38 c-27 -15 -79
-22 -79 -11 0 13 59 30 79 23 11 -4 11 -6 0 -12z"/>
<path d="M368 2410 c-50 -27 -79 -77 -80 -139 0 -68 25 -116 79 -148 37 -21
53 -25 101 -21 68 5 119 33 101 55 -10 11 -15 11 -30 -3 -26 -24 -97 -29 -142
-11 -97 41 -103 193 -8 242 40 20 106 19 142 -2 22 -13 32 -14 40 -6 9 9 3 17
-22 32 -45 27 -130 28 -181 1z"/>
<path d="M705 2275 c-85 -189 -80 -175 -61 -175 9 0 26 20 38 45 l22 45 92 0
92 0 19 -45 c11 -29 24 -45 36 -45 9 0 17 3 16 8 0 4 -33 77 -72 162 -55 117
-77 156 -92 158 -17 2 -32 -24 -90 -153z m165 -51 c0 -2 -34 -4 -76 -4 -57 0
-75 3 -71 13 2 6 20 45 38 86 l33 74 38 -82 c21 -46 38 -85 38 -87z"/>
<path d="M1050 2265 c0 -137 2 -165 14 -165 11 0 16 15 18 53 l3 52 56 3 56 3
36 -56 c25 -37 44 -55 58 -55 18 0 16 6 -21 57 -38 54 -39 58 -21 65 47 17 69
100 42 152 -22 39 -69 56 -160 56 l-81 0 0 -165z m201 106 c25 -31 24 -74 -3
-106 -20 -22 -32 -26 -93 -28 l-70 -2 -3 84 -3 83 77 -4 c65 -3 79 -7 95 -27z"/>
<path d="M3254 2420 c-29 -12 -54 -49 -54 -80 0 -37 35 -65 105 -85 69 -20 95
-39 95 -70 0 -53 -98 -77 -168 -41 -40 20 -52 3 -15 -21 19 -13 47 -18 94 -18
84 0 119 25 119 87 0 44 -21 62 -100 83 -68 18 -100 40 -100 69 0 51 68 77
137 53 23 -8 45 -12 48 -9 29 30 -102 56 -161 32z"/>
<path d="M3540 2265 c0 -138 2 -165 15 -165 11 0 15 18 17 78 l3 77 103 3 102
3 0 -81 c0 -64 3 -80 15 -80 13 0 15 25 15 165 0 140 -2 165 -15 165 -12 0
-15 -15 -15 -75 l0 -75 -105 0 -105 0 0 75 c0 60 -3 75 -15 75 -13 0 -15 -25
-15 -165z"/>
<path d="M4005 2407 c-45 -25 -85 -92 -85 -142 0 -54 40 -117 90 -142 77 -39
156 -26 215 36 24 26 30 41 33 94 4 79 -18 122 -78 154 -56 30 -122 30 -175 0z
m193 -51 c28 -31 32 -42 32 -92 0 -52 -3 -59 -39 -95 -35 -35 -43 -39 -91 -39
-68 0 -113 27 -134 80 -20 51 -20 73 0 117 42 87 164 103 232 29z"/>
<path d="M4380 2265 c0 -140 2 -165 15 -165 12 0 15 13 15 55 l0 55 76 0 c73
0 77 1 110 34 25 25 34 43 34 68 -1 82 -53 118 -172 118 l-78 0 0 -165z m195
110 c32 -31 32 -75 2 -111 -20 -23 -33 -27 -95 -32 l-72 -5 0 87 0 86 70 0
c62 0 74 -3 95 -25z"/>
<path d="M2553 2363 c26 -2 67 -2 90 0 23 2 2 3 -48 3 -49 0 -68 -1 -42 -3z"/>
<path d="M2753 2363 c20 -2 54 -2 75 0 20 2 3 4 -38 4 -41 0 -58 -2 -37 -4z"/>
<path d="M1948 2343 c23 -2 59 -2 80 0 20 2 1 4 -43 4 -44 0 -61 -2 -37 -4z"/>
<path d="M1655 2320 c-4 -7 3 -8 22 -4 38 9 42 14 10 14 -14 0 -29 -5 -32 -10z"/>
<path d="M1628 2293 c6 -2 18 -2 25 0 6 3 1 5 -13 5 -14 0 -19 -2 -12 -5z"/>
<path d="M2137 2250 c-54 -4 -101 -11 -105 -14 -7 -8 176 3 233 14 l40 8 -35
-1 c-19 0 -79 -3 -133 -7z"/>
<path d="M2358 2253 c23 -2 59 -2 80 0 20 2 1 4 -43 4 -44 0 -61 -2 -37 -4z"/>
<path d="M1626 2225 c19 -15 19 -15 -1 -9 -20 6 -20 5 -1 -10 24 -19 36 -20
36 -3 0 17 -21 37 -39 37 -11 0 -10 -4 5 -15z"/>
<path d="M2285 2224 c-110 -7 -220 -13 -245 -14 l-45 -3 35 -7 35 -7 -35 -5
c-19 -2 19 -5 85 -5 102 1 109 1 45 6 l-75 6 80 7 c44 4 132 10 195 14 63 4
122 10 130 15 8 5 11 8 5 7 -5 0 -100 -7 -210 -14z"/>
<path d="M2333 2193 c32 -2 81 -2 110 0 29 2 3 3 -58 3 -60 0 -84 -1 -52 -3z"/>
<path d="M490 1984 c0 -3 22 -44 49 -90 188 -319 465 -545 804 -658 275 -92
610 -90 869 4 160 59 333 162 476 287 l74 64 78 -79 c156 -157 352 -257 613
-314 85 -18 135 -22 297 -23 209 0 249 5 412 56 335 105 576 381 614 702 l7
57 -211 0 c-235 0 -213 7 -227 -74 -10 -58 -57 -145 -104 -192 -102 -102 -252
-147 -496 -148 -145 0 -170 2 -260 27 -55 15 -133 43 -173 63 -77 39 -187 132
-221 188 l-21 34 -131 -69 -132 -69 -122 115 c-67 63 -125 115 -128 115 -2 0
-22 -23 -43 -51 -66 -86 -213 -201 -338 -264 -147 -73 -201 -87 -371 -92 -161
-5 -268 13 -400 67 -141 59 -301 182 -391 300 l-38 50 -243 0 c-134 0 -243 -3
-243 -6z"/>
</g>
</svg>
